# xmcd
#
# Track frame offsets:
#	150
#	17256
#	32157
#	46511
#	62513
#	82039
#	102269
#	115809
#	129367
#	148552
#	162549
#	178213
#	192773
#
# Disc length: 2823 seconds
#
# Revision: 1
# Processed by: cddbd v1.5.2PL0 Copyright (c) Steve Scherf et al.
# Submitted via: audiograbber 1.83.01
#
DISCID=a30b050d
DTITLE=Santiano - Mit den Gezeiten
DYEAR=1900
DGENRE=Folk-Rock
TTITLE0=Gott muss ein Seemann sein
TTITLE1=Drums and Guns
TTITLE2=Salz auf unserer Haut
TTITLE3=Seemann
TTITLE4=Bis in alle Ewigkeit
TTITLE5=Wir sind uns treu
TTITLE6=Have a drink on me
TTITLE7=Sieben Jahre
TTITLE8=Gestrandet
TTITLE9=Rolling home
TTITLE10=Marie
TTITLE11=Great Song of Indifference
TTITLE12=Hoch im Norden
EXTD=
EXTT0=
EXTT1=
EXTT2=
EXTT3=
EXTT4=
EXTT5=
EXTT6=
EXTT7=
EXTT8=
EXTT9=
EXTT10=
EXTT11=
EXTT12=
PLAYORDER=
